<mxfile host="app.diagrams.net" modified="2023-06-07T01:44:57.700Z" agent="Mozilla/5.0 (Macintosh; Intel Mac OS X 10.15; rv:109.0) Gecko/20100101 Firefox/113.0" etag="Wqu9dQQfTjJwxbtg8wUb" version="21.3.7" type="device">
  <diagram name="Page-1" id="74e2e168-ea6b-b213-b513-2b3c1d86103e">
    <mxGraphModel dx="2376" dy="1307" grid="0" gridSize="10" guides="1" tooltips="1" connect="1" arrows="1" fold="1" page="0" pageScale="1" pageWidth="1100" pageHeight="850" background="none" math="0" shadow="0">
      <root>
        <mxCell id="0" />
        <mxCell id="1" parent="0" />
        <mxCell id="77e6c97f196da883-1" value="&lt;font style=&quot;font-size: 18px;&quot;&gt;HTTPRoute 流程图&lt;/font&gt;" style="swimlane;html=1;childLayout=stackLayout;startSize=20;rounded=0;shadow=0;labelBackgroundColor=none;strokeWidth=1;fontFamily=Verdana;fontSize=18;align=center;" parent="1" vertex="1">
          <mxGeometry x="-7" y="-37" width="1652" height="1022" as="geometry">
            <mxRectangle x="60" y="-30" width="210" height="40" as="alternateBounds" />
          </mxGeometry>
        </mxCell>
        <mxCell id="77e6c97f196da883-2" value="Listener/监听" style="swimlane;html=1;startSize=20;fontSize=15;" parent="77e6c97f196da883-1" vertex="1">
          <mxGeometry y="20" width="317" height="1002" as="geometry">
            <mxRectangle y="20" width="40" height="1050" as="alternateBounds" />
          </mxGeometry>
        </mxCell>
        <mxCell id="k9yy4idc6pMp43QgDsTV-6" value="" style="edgeStyle=orthogonalEdgeStyle;rounded=0;orthogonalLoop=1;jettySize=auto;html=1;fontSize=12;" edge="1" parent="77e6c97f196da883-2" source="77e6c97f196da883-8" target="k9yy4idc6pMp43QgDsTV-2">
          <mxGeometry relative="1" as="geometry" />
        </mxCell>
        <mxCell id="77e6c97f196da883-8" value="Accept TCP connections" style="rounded=1;whiteSpace=wrap;html=1;shadow=0;labelBackgroundColor=none;strokeWidth=1;fontFamily=Verdana;fontSize=12;align=center;" parent="77e6c97f196da883-2" vertex="1">
          <mxGeometry x="110" y="40" width="100" height="60" as="geometry" />
        </mxCell>
        <mxCell id="k9yy4idc6pMp43QgDsTV-8" value="" style="edgeStyle=orthogonalEdgeStyle;rounded=0;orthogonalLoop=1;jettySize=auto;html=1;fontSize=12;" edge="1" parent="77e6c97f196da883-2" source="77e6c97f196da883-9" target="k9yy4idc6pMp43QgDsTV-7">
          <mxGeometry relative="1" as="geometry" />
        </mxCell>
        <mxCell id="77e6c97f196da883-9" value="四层限流" style="rounded=1;whiteSpace=wrap;html=1;shadow=0;labelBackgroundColor=none;strokeWidth=1;fontFamily=Verdana;fontSize=12;align=center;" parent="77e6c97f196da883-2" vertex="1">
          <mxGeometry x="110" y="240" width="100" height="60" as="geometry" />
        </mxCell>
        <mxCell id="k9yy4idc6pMp43QgDsTV-14" value="" style="edgeStyle=orthogonalEdgeStyle;rounded=0;orthogonalLoop=1;jettySize=auto;html=1;fontSize=12;" edge="1" parent="77e6c97f196da883-2" source="77e6c97f196da883-10" target="k9yy4idc6pMp43QgDsTV-9">
          <mxGeometry relative="1" as="geometry" />
        </mxCell>
        <mxCell id="77e6c97f196da883-10" value="&lt;div style=&quot;font-size: 12px;&quot;&gt;sni &lt;br style=&quot;font-size: 12px;&quot;&gt;&lt;/div&gt;&lt;div style=&quot;font-size: 12px;&quot;&gt;证书选择&lt;br style=&quot;font-size: 12px;&quot;&gt;&lt;/div&gt;" style="rounded=1;whiteSpace=wrap;html=1;shadow=0;labelBackgroundColor=none;strokeWidth=1;fontFamily=Verdana;fontSize=12;align=center;" parent="77e6c97f196da883-2" vertex="1">
          <mxGeometry x="110" y="430" width="100" height="60" as="geometry" />
        </mxCell>
        <mxCell id="k9yy4idc6pMp43QgDsTV-5" value="放行" style="edgeStyle=orthogonalEdgeStyle;rounded=0;orthogonalLoop=1;jettySize=auto;html=1;fontSize=12;" edge="1" parent="77e6c97f196da883-2" source="k9yy4idc6pMp43QgDsTV-2" target="77e6c97f196da883-9">
          <mxGeometry relative="1" as="geometry" />
        </mxCell>
        <mxCell id="k9yy4idc6pMp43QgDsTV-2" value="&lt;div style=&quot;font-size: 12px;&quot;&gt;IP&lt;/div&gt;&lt;div style=&quot;font-size: 12px;&quot;&gt;黑白名单&lt;br style=&quot;font-size: 12px;&quot;&gt;&lt;/div&gt;" style="rhombus;whiteSpace=wrap;html=1;fontSize=12;" vertex="1" parent="77e6c97f196da883-2">
          <mxGeometry x="100" y="125" width="120" height="80" as="geometry" />
        </mxCell>
        <mxCell id="k9yy4idc6pMp43QgDsTV-3" value="" style="endArrow=classic;html=1;rounded=0;exitX=0;exitY=0.5;exitDx=0;exitDy=0;fontSize=12;" edge="1" parent="77e6c97f196da883-2" source="k9yy4idc6pMp43QgDsTV-2">
          <mxGeometry width="50" height="50" relative="1" as="geometry">
            <mxPoint x="100" y="170" as="sourcePoint" />
            <mxPoint y="165" as="targetPoint" />
          </mxGeometry>
        </mxCell>
        <mxCell id="k9yy4idc6pMp43QgDsTV-4" value="阻挡" style="edgeLabel;html=1;align=center;verticalAlign=middle;resizable=0;points=[];fontSize=12;" vertex="1" connectable="0" parent="k9yy4idc6pMp43QgDsTV-3">
          <mxGeometry x="-0.05" relative="1" as="geometry">
            <mxPoint as="offset" />
          </mxGeometry>
        </mxCell>
        <mxCell id="k9yy4idc6pMp43QgDsTV-12" value="" style="edgeStyle=orthogonalEdgeStyle;rounded=0;orthogonalLoop=1;jettySize=auto;html=1;entryX=0.5;entryY=0;entryDx=0;entryDy=0;fontSize=12;" edge="1" parent="77e6c97f196da883-2" source="k9yy4idc6pMp43QgDsTV-7" target="77e6c97f196da883-10">
          <mxGeometry relative="1" as="geometry" />
        </mxCell>
        <mxCell id="k9yy4idc6pMp43QgDsTV-186" value="是" style="edgeLabel;html=1;align=center;verticalAlign=middle;resizable=0;points=[];fontSize=12;" vertex="1" connectable="0" parent="k9yy4idc6pMp43QgDsTV-12">
          <mxGeometry x="0.6" y="2" relative="1" as="geometry">
            <mxPoint as="offset" />
          </mxGeometry>
        </mxCell>
        <mxCell id="k9yy4idc6pMp43QgDsTV-18" value="" style="edgeStyle=orthogonalEdgeStyle;rounded=0;orthogonalLoop=1;jettySize=auto;html=1;entryX=0.5;entryY=0;entryDx=0;entryDy=0;exitX=1;exitY=0.5;exitDx=0;exitDy=0;fontSize=12;" edge="1" parent="77e6c97f196da883-2" source="k9yy4idc6pMp43QgDsTV-7" target="k9yy4idc6pMp43QgDsTV-16">
          <mxGeometry relative="1" as="geometry">
            <mxPoint x="250" y="708" as="targetPoint" />
            <Array as="points">
              <mxPoint x="240" y="366" />
              <mxPoint x="240" y="670" />
              <mxPoint x="160" y="670" />
            </Array>
          </mxGeometry>
        </mxCell>
        <mxCell id="k9yy4idc6pMp43QgDsTV-187" value="否" style="edgeLabel;html=1;align=center;verticalAlign=middle;resizable=0;points=[];fontSize=12;" vertex="1" connectable="0" parent="k9yy4idc6pMp43QgDsTV-18">
          <mxGeometry x="-0.467" y="1" relative="1" as="geometry">
            <mxPoint as="offset" />
          </mxGeometry>
        </mxCell>
        <mxCell id="k9yy4idc6pMp43QgDsTV-7" value="&lt;div style=&quot;font-size: 12px;&quot;&gt;是否&lt;/div&gt;&lt;div style=&quot;font-size: 12px;&quot;&gt;HTTPS&lt;br style=&quot;font-size: 12px;&quot;&gt;&lt;/div&gt;" style="rhombus;whiteSpace=wrap;html=1;fontSize=12;" vertex="1" parent="77e6c97f196da883-2">
          <mxGeometry x="100" y="326" width="120" height="80" as="geometry" />
        </mxCell>
        <mxCell id="k9yy4idc6pMp43QgDsTV-19" value="" style="edgeStyle=orthogonalEdgeStyle;rounded=0;orthogonalLoop=1;jettySize=auto;html=1;fontSize=12;" edge="1" parent="77e6c97f196da883-2" source="k9yy4idc6pMp43QgDsTV-24" target="k9yy4idc6pMp43QgDsTV-16">
          <mxGeometry relative="1" as="geometry" />
        </mxCell>
        <mxCell id="77e6c97f196da883-11" value="&lt;div style=&quot;font-size: 12px;&quot;&gt;根据client TLS 证书&lt;/div&gt;&lt;div style=&quot;font-size: 12px;&quot;&gt;确定 consumer&lt;br style=&quot;font-size: 12px;&quot;&gt;&lt;/div&gt;" style="rounded=1;whiteSpace=wrap;html=1;shadow=0;labelBackgroundColor=none;strokeWidth=1;fontFamily=Verdana;fontSize=12;align=center;" parent="77e6c97f196da883-2" vertex="1">
          <mxGeometry x="110" y="590" width="100" height="60" as="geometry" />
        </mxCell>
        <mxCell id="k9yy4idc6pMp43QgDsTV-15" value="是" style="edgeStyle=orthogonalEdgeStyle;rounded=0;orthogonalLoop=1;jettySize=auto;html=1;fontSize=12;" edge="1" parent="77e6c97f196da883-2" source="k9yy4idc6pMp43QgDsTV-9" target="77e6c97f196da883-11">
          <mxGeometry relative="1" as="geometry" />
        </mxCell>
        <mxCell id="k9yy4idc6pMp43QgDsTV-21" value="否" style="edgeStyle=orthogonalEdgeStyle;rounded=0;orthogonalLoop=1;jettySize=auto;html=1;fontSize=12;" edge="1" parent="77e6c97f196da883-2" source="k9yy4idc6pMp43QgDsTV-9">
          <mxGeometry relative="1" as="geometry">
            <mxPoint x="240" y="540" as="targetPoint" />
          </mxGeometry>
        </mxCell>
        <mxCell id="k9yy4idc6pMp43QgDsTV-9" value="&lt;div style=&quot;font-size: 12px;&quot;&gt;是否&lt;/div&gt;&lt;div style=&quot;font-size: 12px;&quot;&gt;mTLS&lt;br style=&quot;font-size: 12px;&quot;&gt;&lt;/div&gt;" style="rhombus;whiteSpace=wrap;html=1;fontSize=12;" vertex="1" parent="77e6c97f196da883-2">
          <mxGeometry x="100" y="510" width="120" height="60" as="geometry" />
        </mxCell>
        <mxCell id="k9yy4idc6pMp43QgDsTV-232" value="" style="edgeStyle=orthogonalEdgeStyle;rounded=0;orthogonalLoop=1;jettySize=auto;html=1;fontSize=12;" edge="1" parent="77e6c97f196da883-2" source="k9yy4idc6pMp43QgDsTV-16" target="k9yy4idc6pMp43QgDsTV-53">
          <mxGeometry relative="1" as="geometry" />
        </mxCell>
        <mxCell id="k9yy4idc6pMp43QgDsTV-16" value="&lt;div style=&quot;font-size: 12px;&quot;&gt;chain&lt;/div&gt;下一流程" style="ellipse;whiteSpace=wrap;html=1;aspect=fixed;fontSize=12;" vertex="1" parent="77e6c97f196da883-2">
          <mxGeometry x="120" y="781" width="80" height="80" as="geometry" />
        </mxCell>
        <mxCell id="k9yy4idc6pMp43QgDsTV-24" value="decode HTTP" style="rounded=1;whiteSpace=wrap;html=1;shadow=0;labelBackgroundColor=none;strokeWidth=1;fontFamily=Verdana;fontSize=12;align=center;" vertex="1" parent="77e6c97f196da883-2">
          <mxGeometry x="110" y="690" width="100" height="60" as="geometry" />
        </mxCell>
        <mxCell id="k9yy4idc6pMp43QgDsTV-231" value="" style="edgeStyle=orthogonalEdgeStyle;rounded=0;orthogonalLoop=1;jettySize=auto;html=1;fontSize=12;" edge="1" parent="77e6c97f196da883-2" source="77e6c97f196da883-11" target="k9yy4idc6pMp43QgDsTV-24">
          <mxGeometry relative="1" as="geometry">
            <mxPoint x="170" y="630" as="sourcePoint" />
            <mxPoint x="170" y="761" as="targetPoint" />
          </mxGeometry>
        </mxCell>
        <mxCell id="k9yy4idc6pMp43QgDsTV-53" value="encode HTTP" style="rounded=1;whiteSpace=wrap;html=1;shadow=0;labelBackgroundColor=none;strokeWidth=1;fontFamily=Verdana;fontSize=12;align=center;" vertex="1" parent="77e6c97f196da883-2">
          <mxGeometry x="110" y="905" width="100" height="60" as="geometry" />
        </mxCell>
        <mxCell id="k9yy4idc6pMp43QgDsTV-261" value="Metrics/Tracing/Logging（插件）" style="swimlane;html=1;startSize=20;fontSize=15;" vertex="1" parent="77e6c97f196da883-1">
          <mxGeometry x="317" y="20" width="276" height="1002" as="geometry">
            <mxRectangle y="20" width="40" height="1050" as="alternateBounds" />
          </mxGeometry>
        </mxCell>
        <mxCell id="k9yy4idc6pMp43QgDsTV-265" value="" style="edgeStyle=orthogonalEdgeStyle;rounded=0;orthogonalLoop=1;jettySize=auto;html=1;fontSize=12;" edge="1" parent="k9yy4idc6pMp43QgDsTV-261" source="k9yy4idc6pMp43QgDsTV-262" target="k9yy4idc6pMp43QgDsTV-263">
          <mxGeometry relative="1" as="geometry" />
        </mxCell>
        <mxCell id="k9yy4idc6pMp43QgDsTV-262" value="&lt;div style=&quot;font-size: 12px;&quot;&gt;Metrics&lt;/div&gt;&lt;div style=&quot;font-size: 12px;&quot;&gt;&lt;br style=&quot;font-size: 12px;&quot;&gt;&lt;/div&gt;&lt;div style=&quot;font-size: 12px;&quot;&gt;（可配置加载）&lt;br style=&quot;font-size: 12px;&quot;&gt;&lt;/div&gt;" style="rounded=1;whiteSpace=wrap;html=1;shadow=0;labelBackgroundColor=none;strokeWidth=1;fontFamily=Verdana;fontSize=12;align=center;flipV=0;flipH=1;" vertex="1" parent="k9yy4idc6pMp43QgDsTV-261">
          <mxGeometry x="71.5" y="51" width="100" height="80" as="geometry" />
        </mxCell>
        <mxCell id="k9yy4idc6pMp43QgDsTV-266" value="" style="edgeStyle=orthogonalEdgeStyle;rounded=0;orthogonalLoop=1;jettySize=auto;html=1;fontSize=12;" edge="1" parent="k9yy4idc6pMp43QgDsTV-261" source="k9yy4idc6pMp43QgDsTV-263" target="k9yy4idc6pMp43QgDsTV-264">
          <mxGeometry relative="1" as="geometry" />
        </mxCell>
        <mxCell id="k9yy4idc6pMp43QgDsTV-263" value="&lt;div style=&quot;font-size: 12px;&quot;&gt;Tracing&lt;/div&gt;&lt;div style=&quot;font-size: 12px;&quot;&gt;&lt;br style=&quot;font-size: 12px;&quot;&gt;&lt;/div&gt;&lt;div style=&quot;font-size: 12px;&quot;&gt;（可配置加载）&lt;br style=&quot;font-size: 12px;&quot;&gt;&lt;/div&gt;" style="rounded=1;whiteSpace=wrap;html=1;shadow=0;labelBackgroundColor=none;strokeWidth=1;fontFamily=Verdana;fontSize=12;align=center;flipV=0;flipH=1;" vertex="1" parent="k9yy4idc6pMp43QgDsTV-261">
          <mxGeometry x="71.5" y="185" width="100" height="80" as="geometry" />
        </mxCell>
        <mxCell id="k9yy4idc6pMp43QgDsTV-268" value="" style="edgeStyle=orthogonalEdgeStyle;rounded=0;orthogonalLoop=1;jettySize=auto;html=1;fontSize=12;" edge="1" parent="k9yy4idc6pMp43QgDsTV-261" source="k9yy4idc6pMp43QgDsTV-264" target="k9yy4idc6pMp43QgDsTV-267">
          <mxGeometry relative="1" as="geometry" />
        </mxCell>
        <mxCell id="k9yy4idc6pMp43QgDsTV-264" value="&lt;div style=&quot;font-size: 12px;&quot;&gt;&lt;font style=&quot;font-size: 12px;&quot;&gt;Logging&lt;/font&gt;&lt;/div&gt;&lt;div style=&quot;font-size: 12px;&quot;&gt;&lt;font style=&quot;font-size: 12px;&quot;&gt;&lt;br style=&quot;font-size: 12px;&quot;&gt;&lt;/font&gt;&lt;/div&gt;&lt;div style=&quot;font-size: 12px;&quot;&gt;&lt;font style=&quot;font-size: 12px;&quot;&gt;（可配置加载）&lt;font style=&quot;font-size: 12px;&quot;&gt;&lt;br style=&quot;font-size: 12px;&quot;&gt;&lt;/font&gt;&lt;/font&gt;&lt;/div&gt;" style="rounded=1;whiteSpace=wrap;html=1;shadow=0;labelBackgroundColor=none;strokeWidth=1;fontFamily=Verdana;fontSize=12;align=center;flipV=0;flipH=1;" vertex="1" parent="k9yy4idc6pMp43QgDsTV-261">
          <mxGeometry x="71.5" y="340" width="100" height="80" as="geometry" />
        </mxCell>
        <mxCell id="k9yy4idc6pMp43QgDsTV-273" value="" style="edgeStyle=orthogonalEdgeStyle;rounded=0;orthogonalLoop=1;jettySize=auto;html=1;exitX=0.5;exitY=1;exitDx=0;exitDy=0;fontSize=12;" edge="1" parent="k9yy4idc6pMp43QgDsTV-261" source="k9yy4idc6pMp43QgDsTV-267">
          <mxGeometry relative="1" as="geometry">
            <mxPoint x="2" y="837" as="targetPoint" />
            <Array as="points">
              <mxPoint x="121" y="837" />
            </Array>
          </mxGeometry>
        </mxCell>
        <mxCell id="k9yy4idc6pMp43QgDsTV-267" value="&lt;div style=&quot;font-size: 12px;&quot;&gt;chain&lt;/div&gt;下一流程" style="ellipse;whiteSpace=wrap;html=1;aspect=fixed;fontSize=12;" vertex="1" parent="k9yy4idc6pMp43QgDsTV-261">
          <mxGeometry x="81.5" y="484" width="80" height="80" as="geometry" />
        </mxCell>
        <mxCell id="k9yy4idc6pMp43QgDsTV-271" style="edgeStyle=orthogonalEdgeStyle;rounded=0;orthogonalLoop=1;jettySize=auto;html=1;exitX=1;exitY=0.5;exitDx=0;exitDy=0;fontSize=12;" edge="1" parent="77e6c97f196da883-1" source="k9yy4idc6pMp43QgDsTV-267">
          <mxGeometry relative="1" as="geometry">
            <mxPoint x="595" y="73" as="targetPoint" />
            <Array as="points">
              <mxPoint x="480" y="548" />
              <mxPoint x="545" y="548" />
              <mxPoint x="545" y="73" />
            </Array>
          </mxGeometry>
        </mxCell>
        <mxCell id="77e6c97f196da883-3" value="HTTPRoute/路由" style="swimlane;html=1;startSize=20;fontSize=15;" parent="77e6c97f196da883-1" vertex="1">
          <mxGeometry x="593" y="20" width="300" height="1002" as="geometry">
            <mxRectangle x="160" y="20" width="40" height="730" as="alternateBounds" />
          </mxGeometry>
        </mxCell>
        <mxCell id="k9yy4idc6pMp43QgDsTV-191" value="" style="edgeStyle=orthogonalEdgeStyle;rounded=0;orthogonalLoop=1;jettySize=auto;html=1;fontSize=12;" edge="1" parent="77e6c97f196da883-3" source="k9yy4idc6pMp43QgDsTV-25" target="k9yy4idc6pMp43QgDsTV-51">
          <mxGeometry relative="1" as="geometry" />
        </mxCell>
        <mxCell id="k9yy4idc6pMp43QgDsTV-25" value="&lt;div style=&quot;font-size: 9px;&quot;&gt;AuthN&lt;/div&gt;&lt;div style=&quot;font-size: 9px;&quot;&gt;（身份认证）&lt;br style=&quot;font-size: 9px;&quot;&gt;&lt;/div&gt;&lt;div style=&quot;font-size: 9px;&quot;&gt;&lt;br style=&quot;font-size: 9px;&quot;&gt;&lt;/div&gt;&lt;div style=&quot;font-size: 9px;&quot;&gt;OAuth&lt;/div&gt;&lt;div style=&quot;font-size: 9px;&quot;&gt;Key Auth&lt;/div&gt;&lt;div style=&quot;font-size: 9px;&quot;&gt;HMAC&lt;/div&gt;&lt;div style=&quot;font-size: 9px;&quot;&gt;BASIC&lt;br style=&quot;font-size: 9px;&quot;&gt;&lt;/div&gt;" style="rounded=1;whiteSpace=wrap;html=1;shadow=0;labelBackgroundColor=none;strokeWidth=1;fontFamily=Verdana;fontSize=9;align=center;" vertex="1" parent="77e6c97f196da883-3">
          <mxGeometry x="96" y="41" width="100" height="80" as="geometry" />
        </mxCell>
        <mxCell id="k9yy4idc6pMp43QgDsTV-194" value="" style="edgeStyle=orthogonalEdgeStyle;rounded=0;orthogonalLoop=1;jettySize=auto;html=1;fontSize=12;" edge="1" parent="77e6c97f196da883-3" source="k9yy4idc6pMp43QgDsTV-46" target="k9yy4idc6pMp43QgDsTV-105">
          <mxGeometry relative="1" as="geometry" />
        </mxCell>
        <mxCell id="k9yy4idc6pMp43QgDsTV-46" value="针对用户的限流" style="rounded=1;whiteSpace=wrap;html=1;shadow=0;labelBackgroundColor=none;strokeWidth=1;fontFamily=Verdana;fontSize=12;align=center;" vertex="1" parent="77e6c97f196da883-3">
          <mxGeometry x="96" y="256" width="100" height="60" as="geometry" />
        </mxCell>
        <mxCell id="k9yy4idc6pMp43QgDsTV-193" value="" style="edgeStyle=orthogonalEdgeStyle;rounded=0;orthogonalLoop=1;jettySize=auto;html=1;fontSize=12;" edge="1" parent="77e6c97f196da883-3" source="k9yy4idc6pMp43QgDsTV-51">
          <mxGeometry relative="1" as="geometry">
            <mxPoint x="146" y="261" as="targetPoint" />
          </mxGeometry>
        </mxCell>
        <mxCell id="k9yy4idc6pMp43QgDsTV-51" value="&lt;div style=&quot;font-size: 12px;&quot;&gt;AuthZ&lt;/div&gt;&lt;div style=&quot;font-size: 12px;&quot;&gt;（访问鉴权）&lt;br style=&quot;font-size: 12px;&quot;&gt;&lt;/div&gt;&lt;div style=&quot;font-size: 12px;&quot;&gt;&lt;br style=&quot;font-size: 12px;&quot;&gt;&lt;/div&gt;&lt;div style=&quot;font-size: 12px;&quot;&gt;IP地址黑白名单&lt;/div&gt;&lt;div style=&quot;font-size: 12px;&quot;&gt;&lt;br style=&quot;font-size: 12px;&quot;&gt;&lt;/div&gt;" style="rounded=1;whiteSpace=wrap;html=1;shadow=0;labelBackgroundColor=none;strokeWidth=1;fontFamily=Verdana;fontSize=12;align=center;" vertex="1" parent="77e6c97f196da883-3">
          <mxGeometry x="96" y="151" width="100" height="80" as="geometry" />
        </mxCell>
        <mxCell id="k9yy4idc6pMp43QgDsTV-275" value="" style="edgeStyle=orthogonalEdgeStyle;rounded=0;orthogonalLoop=1;jettySize=auto;html=1;exitX=0.5;exitY=1;exitDx=0;exitDy=0;" edge="1" parent="77e6c97f196da883-3" source="k9yy4idc6pMp43QgDsTV-52">
          <mxGeometry relative="1" as="geometry">
            <mxPoint x="2" y="542" as="targetPoint" />
            <Array as="points">
              <mxPoint x="146" y="666" />
              <mxPoint x="53" y="666" />
              <mxPoint x="53" y="542" />
            </Array>
          </mxGeometry>
        </mxCell>
        <mxCell id="k9yy4idc6pMp43QgDsTV-52" value="&lt;div style=&quot;font-size: 12px;&quot;&gt;chain&lt;/div&gt;下一流程" style="ellipse;whiteSpace=wrap;html=1;aspect=fixed;fontSize=12;" vertex="1" parent="77e6c97f196da883-3">
          <mxGeometry x="106" y="554" width="80" height="80" as="geometry" />
        </mxCell>
        <mxCell id="k9yy4idc6pMp43QgDsTV-199" value="" style="edgeStyle=orthogonalEdgeStyle;rounded=0;orthogonalLoop=1;jettySize=auto;html=1;fontSize=12;" edge="1" parent="77e6c97f196da883-3">
          <mxGeometry relative="1" as="geometry">
            <mxPoint x="189" y="602" as="sourcePoint" />
            <mxPoint x="300" y="50" as="targetPoint" />
            <Array as="points">
              <mxPoint x="189" y="602" />
              <mxPoint x="230" y="602" />
              <mxPoint x="230" y="50" />
            </Array>
          </mxGeometry>
        </mxCell>
        <mxCell id="k9yy4idc6pMp43QgDsTV-195" value="" style="edgeStyle=orthogonalEdgeStyle;rounded=0;orthogonalLoop=1;jettySize=auto;html=1;fontSize=12;" edge="1" parent="77e6c97f196da883-3" source="k9yy4idc6pMp43QgDsTV-105" target="k9yy4idc6pMp43QgDsTV-158">
          <mxGeometry relative="1" as="geometry" />
        </mxCell>
        <mxCell id="k9yy4idc6pMp43QgDsTV-105" value="&lt;div style=&quot;font-size: 12px;&quot;&gt;匹配域名&lt;/div&gt;&lt;div style=&quot;font-size: 12px;&quot;&gt;Host&lt;br style=&quot;font-size: 12px;&quot;&gt;&lt;/div&gt;" style="rounded=1;whiteSpace=wrap;html=1;shadow=0;labelBackgroundColor=none;strokeWidth=1;fontFamily=Verdana;fontSize=12;align=center;" vertex="1" parent="77e6c97f196da883-3">
          <mxGeometry x="96" y="346" width="100" height="80" as="geometry" />
        </mxCell>
        <mxCell id="k9yy4idc6pMp43QgDsTV-196" value="" style="edgeStyle=orthogonalEdgeStyle;rounded=0;orthogonalLoop=1;jettySize=auto;html=1;fontSize=12;" edge="1" parent="77e6c97f196da883-3" source="k9yy4idc6pMp43QgDsTV-158" target="k9yy4idc6pMp43QgDsTV-52">
          <mxGeometry relative="1" as="geometry" />
        </mxCell>
        <mxCell id="k9yy4idc6pMp43QgDsTV-158" value="&lt;div style=&quot;font-size: 9px;&quot;&gt;匹配&lt;/div&gt;&lt;div style=&quot;font-size: 9px;&quot;&gt;&lt;br style=&quot;font-size: 9px;&quot;&gt;&lt;/div&gt;&lt;div style=&quot;font-size: 9px;&quot;&gt;Path&lt;/div&gt;&lt;div style=&quot;font-size: 9px;&quot;&gt;Headers&lt;/div&gt;&lt;div style=&quot;font-size: 9px;&quot;&gt;&lt;pre style=&quot;font-size: 9px;&quot;&gt;Methods&lt;br style=&quot;font-size: 9px;&quot;&gt;QueryParams&lt;/pre&gt;&lt;/div&gt;" style="rounded=1;whiteSpace=wrap;html=1;shadow=0;labelBackgroundColor=none;strokeWidth=1;fontFamily=Verdana;fontSize=9;align=center;" vertex="1" parent="77e6c97f196da883-3">
          <mxGeometry x="96" y="454" width="100" height="80" as="geometry" />
        </mxCell>
        <mxCell id="77e6c97f196da883-5" value="ServicePolicies/策略" style="swimlane;html=1;startSize=20;fontSize=15;" parent="77e6c97f196da883-1" vertex="1">
          <mxGeometry x="893" y="20" width="300" height="1002" as="geometry" />
        </mxCell>
        <mxCell id="k9yy4idc6pMp43QgDsTV-201" value="" style="edgeStyle=orthogonalEdgeStyle;rounded=0;orthogonalLoop=1;jettySize=auto;html=1;fontSize=12;" edge="1" parent="77e6c97f196da883-5" source="k9yy4idc6pMp43QgDsTV-159" target="k9yy4idc6pMp43QgDsTV-160">
          <mxGeometry relative="1" as="geometry" />
        </mxCell>
        <mxCell id="k9yy4idc6pMp43QgDsTV-159" value="&lt;div style=&quot;font-size: 12px;&quot;&gt;针对域名的限流&lt;/div&gt;&lt;div style=&quot;font-size: 12px;&quot;&gt;&lt;br style=&quot;font-size: 12px;&quot;&gt;&lt;/div&gt;&lt;div style=&quot;font-size: 12px;&quot;&gt;Host&lt;br style=&quot;font-size: 12px;&quot;&gt;&lt;/div&gt;" style="rounded=1;whiteSpace=wrap;html=1;shadow=0;labelBackgroundColor=none;strokeWidth=1;fontFamily=Verdana;fontSize=12;align=center;flipV=1;flipH=1;" vertex="1" parent="77e6c97f196da883-5">
          <mxGeometry x="90" y="145" width="100" height="80" as="geometry" />
        </mxCell>
        <mxCell id="k9yy4idc6pMp43QgDsTV-202" value="" style="edgeStyle=orthogonalEdgeStyle;rounded=0;orthogonalLoop=1;jettySize=auto;html=1;fontSize=12;" edge="1" parent="77e6c97f196da883-5" source="k9yy4idc6pMp43QgDsTV-160" target="k9yy4idc6pMp43QgDsTV-161">
          <mxGeometry relative="1" as="geometry" />
        </mxCell>
        <mxCell id="k9yy4idc6pMp43QgDsTV-160" value="&lt;div style=&quot;font-size: 12px;&quot;&gt;针对路由的限流&lt;/div&gt;&lt;div style=&quot;font-size: 12px;&quot;&gt;&lt;br style=&quot;font-size: 12px;&quot;&gt;&lt;/div&gt;&lt;div style=&quot;font-size: 12px;&quot;&gt;Path&lt;/div&gt;&lt;div style=&quot;font-size: 12px;&quot;&gt;Header&lt;br style=&quot;font-size: 12px;&quot;&gt;&lt;/div&gt;" style="rounded=1;whiteSpace=wrap;html=1;shadow=0;labelBackgroundColor=none;strokeWidth=1;fontFamily=Verdana;fontSize=12;align=center;flipV=1;flipH=1;" vertex="1" parent="77e6c97f196da883-5">
          <mxGeometry x="90" y="250" width="100" height="80" as="geometry" />
        </mxCell>
        <mxCell id="k9yy4idc6pMp43QgDsTV-203" value="" style="edgeStyle=orthogonalEdgeStyle;rounded=0;orthogonalLoop=1;jettySize=auto;html=1;fontSize=12;" edge="1" parent="77e6c97f196da883-5" source="k9yy4idc6pMp43QgDsTV-161" target="k9yy4idc6pMp43QgDsTV-162">
          <mxGeometry relative="1" as="geometry" />
        </mxCell>
        <mxCell id="k9yy4idc6pMp43QgDsTV-161" value="&lt;pre style=&quot;font-size: 12px;&quot;&gt;RequestRedirect&lt;br style=&quot;font-size: 12px;&quot;&gt;&lt;br style=&quot;font-size: 12px;&quot;&gt;请求重定向&lt;br style=&quot;font-size: 12px;&quot;&gt;&lt;/pre&gt;" style="rounded=1;whiteSpace=wrap;html=1;shadow=0;labelBackgroundColor=none;strokeWidth=1;fontFamily=Verdana;fontSize=12;align=center;flipV=1;flipH=1;" vertex="1" parent="77e6c97f196da883-5">
          <mxGeometry x="90" y="355" width="100" height="80" as="geometry" />
        </mxCell>
        <mxCell id="k9yy4idc6pMp43QgDsTV-204" value="" style="edgeStyle=orthogonalEdgeStyle;rounded=0;orthogonalLoop=1;jettySize=auto;html=1;fontSize=12;" edge="1" parent="77e6c97f196da883-5" source="k9yy4idc6pMp43QgDsTV-162" target="k9yy4idc6pMp43QgDsTV-163">
          <mxGeometry relative="1" as="geometry" />
        </mxCell>
        <mxCell id="k9yy4idc6pMp43QgDsTV-162" value="&lt;pre style=&quot;font-size: 12px;&quot;&gt;HTTPURLRewrite&lt;br style=&quot;font-size: 12px;&quot;&gt;&lt;br style=&quot;font-size: 12px;&quot;&gt;URL 重写&lt;br style=&quot;font-size: 12px;&quot;&gt;&lt;/pre&gt;" style="rounded=1;whiteSpace=wrap;html=1;shadow=0;labelBackgroundColor=none;strokeWidth=1;fontFamily=Verdana;fontSize=12;align=center;flipV=1;flipH=1;" vertex="1" parent="77e6c97f196da883-5">
          <mxGeometry x="90" y="460" width="100" height="80" as="geometry" />
        </mxCell>
        <mxCell id="k9yy4idc6pMp43QgDsTV-205" value="" style="edgeStyle=orthogonalEdgeStyle;rounded=0;orthogonalLoop=1;jettySize=auto;html=1;fontSize=12;" edge="1" parent="77e6c97f196da883-5" source="k9yy4idc6pMp43QgDsTV-163" target="k9yy4idc6pMp43QgDsTV-164">
          <mxGeometry relative="1" as="geometry" />
        </mxCell>
        <mxCell id="k9yy4idc6pMp43QgDsTV-163" value="&lt;pre style=&quot;font-size: 12px;&quot;&gt;RequestHeaderModifier&lt;br style=&quot;font-size: 12px;&quot;&gt;&lt;br style=&quot;font-size: 12px;&quot;&gt;修改请求头&lt;br style=&quot;font-size: 12px;&quot;&gt;&lt;/pre&gt;" style="rounded=1;whiteSpace=wrap;html=1;shadow=0;labelBackgroundColor=none;strokeWidth=1;fontFamily=Verdana;fontSize=12;align=center;flipV=1;flipH=1;" vertex="1" parent="77e6c97f196da883-5">
          <mxGeometry x="90" y="565" width="100" height="80" as="geometry" />
        </mxCell>
        <mxCell id="k9yy4idc6pMp43QgDsTV-206" value="" style="edgeStyle=orthogonalEdgeStyle;rounded=0;orthogonalLoop=1;jettySize=auto;html=1;fontSize=12;" edge="1" parent="77e6c97f196da883-5" source="k9yy4idc6pMp43QgDsTV-164" target="k9yy4idc6pMp43QgDsTV-165">
          <mxGeometry relative="1" as="geometry" />
        </mxCell>
        <mxCell id="k9yy4idc6pMp43QgDsTV-164" value="&lt;pre style=&quot;font-size: 12px;&quot;&gt;RequestMirror&lt;br style=&quot;font-size: 12px;&quot;&gt;&lt;br style=&quot;font-size: 12px;&quot;&gt;流量镜像&lt;br style=&quot;font-size: 12px;&quot;&gt;&lt;/pre&gt;" style="rounded=1;whiteSpace=wrap;html=1;shadow=0;labelBackgroundColor=none;strokeWidth=1;fontFamily=Verdana;fontSize=12;align=center;flipV=1;flipH=1;" vertex="1" parent="77e6c97f196da883-5">
          <mxGeometry x="90" y="670" width="100" height="80" as="geometry" />
        </mxCell>
        <mxCell id="k9yy4idc6pMp43QgDsTV-207" value="" style="edgeStyle=orthogonalEdgeStyle;rounded=0;orthogonalLoop=1;jettySize=auto;html=1;fontSize=12;" edge="1" parent="77e6c97f196da883-5" source="k9yy4idc6pMp43QgDsTV-165" target="k9yy4idc6pMp43QgDsTV-168">
          <mxGeometry relative="1" as="geometry" />
        </mxCell>
        <mxCell id="k9yy4idc6pMp43QgDsTV-209" value="" style="edgeStyle=orthogonalEdgeStyle;rounded=0;orthogonalLoop=1;jettySize=auto;html=1;fontSize=12;" edge="1" parent="77e6c97f196da883-5" source="k9yy4idc6pMp43QgDsTV-165">
          <mxGeometry relative="1" as="geometry">
            <mxPoint x="300" y="50" as="targetPoint" />
            <Array as="points">
              <mxPoint x="240" y="820" />
              <mxPoint x="240" y="50" />
            </Array>
          </mxGeometry>
        </mxCell>
        <mxCell id="k9yy4idc6pMp43QgDsTV-165" value="&lt;div style=&quot;font-size: 12px;&quot;&gt;chain&lt;/div&gt;下一流程" style="ellipse;whiteSpace=wrap;html=1;aspect=fixed;fontSize=12;" vertex="1" parent="77e6c97f196da883-5">
          <mxGeometry x="100" y="780" width="80" height="80" as="geometry" />
        </mxCell>
        <mxCell id="k9yy4idc6pMp43QgDsTV-228" value="" style="edgeStyle=orthogonalEdgeStyle;rounded=0;orthogonalLoop=1;jettySize=auto;html=1;fontSize=12;" edge="1" parent="77e6c97f196da883-5" source="k9yy4idc6pMp43QgDsTV-168">
          <mxGeometry relative="1" as="geometry">
            <mxPoint y="614" as="targetPoint" />
            <Array as="points">
              <mxPoint x="40" y="930" />
              <mxPoint x="40" y="614" />
              <mxPoint y="614" />
            </Array>
          </mxGeometry>
        </mxCell>
        <mxCell id="k9yy4idc6pMp43QgDsTV-168" value="&lt;pre style=&quot;font-size: 12px;&quot;&gt;ResponseHeaderModifier&lt;br style=&quot;font-size: 12px;&quot;&gt;&lt;br style=&quot;font-size: 12px;&quot;&gt;修改响应头&lt;br style=&quot;font-size: 12px;&quot;&gt;&lt;/pre&gt;" style="rounded=1;whiteSpace=wrap;html=1;shadow=0;labelBackgroundColor=none;strokeWidth=1;fontFamily=Verdana;fontSize=12;align=center;flipV=1;flipH=1;" vertex="1" parent="77e6c97f196da883-5">
          <mxGeometry x="80" y="890" width="120" height="80" as="geometry" />
        </mxCell>
        <mxCell id="k9yy4idc6pMp43QgDsTV-200" value="" style="edgeStyle=orthogonalEdgeStyle;rounded=0;orthogonalLoop=1;jettySize=auto;html=1;fontSize=12;" edge="1" parent="77e6c97f196da883-5" source="k9yy4idc6pMp43QgDsTV-179" target="k9yy4idc6pMp43QgDsTV-159">
          <mxGeometry relative="1" as="geometry" />
        </mxCell>
        <mxCell id="k9yy4idc6pMp43QgDsTV-179" value="&lt;div style=&quot;font-size: 12px;&quot;&gt;circuit-breaker&lt;/div&gt;&lt;div style=&quot;font-size: 12px;&quot;&gt;&lt;br style=&quot;font-size: 12px;&quot;&gt;&lt;/div&gt;&lt;div style=&quot;font-size: 12px;&quot;&gt;熔断&lt;br style=&quot;font-size: 12px;&quot;&gt;&lt;/div&gt;" style="rounded=1;whiteSpace=wrap;html=1;shadow=0;labelBackgroundColor=none;strokeWidth=1;fontFamily=Verdana;fontSize=12;align=center;flipV=1;flipH=1;" vertex="1" parent="77e6c97f196da883-5">
          <mxGeometry x="90" y="40" width="100" height="80" as="geometry" />
        </mxCell>
        <mxCell id="k9yy4idc6pMp43QgDsTV-189" value="" style="edgeStyle=orthogonalEdgeStyle;rounded=0;orthogonalLoop=1;jettySize=auto;html=1;fontSize=12;" edge="1" parent="77e6c97f196da883-1" source="k9yy4idc6pMp43QgDsTV-16">
          <mxGeometry relative="1" as="geometry">
            <mxPoint x="320" y="75" as="targetPoint" />
            <Array as="points">
              <mxPoint x="280" y="841" />
              <mxPoint x="280" y="75" />
            </Array>
          </mxGeometry>
        </mxCell>
        <mxCell id="77e6c97f196da883-6" value="Forward/转发" style="swimlane;html=1;startSize=20;fontSize=15;" parent="77e6c97f196da883-1" vertex="1">
          <mxGeometry x="1193" y="20" width="260" height="1002" as="geometry" />
        </mxCell>
        <mxCell id="k9yy4idc6pMp43QgDsTV-212" value="" style="edgeStyle=orthogonalEdgeStyle;rounded=0;orthogonalLoop=1;jettySize=auto;html=1;fontSize=12;" edge="1" parent="77e6c97f196da883-6" source="k9yy4idc6pMp43QgDsTV-169" target="k9yy4idc6pMp43QgDsTV-176">
          <mxGeometry relative="1" as="geometry" />
        </mxCell>
        <mxCell id="k9yy4idc6pMp43QgDsTV-169" value="&lt;div style=&quot;font-size: 12px;&quot;&gt;负载均衡&lt;/div&gt;&lt;div style=&quot;font-size: 12px;&quot;&gt;&lt;br style=&quot;font-size: 12px;&quot;&gt;&lt;/div&gt;&lt;div style=&quot;font-size: 12px;&quot;&gt;endpoints&lt;br style=&quot;font-size: 12px;&quot;&gt;&lt;/div&gt;" style="rounded=1;whiteSpace=wrap;html=1;shadow=0;labelBackgroundColor=none;strokeWidth=1;fontFamily=Verdana;fontSize=12;align=center;flipV=1;" vertex="1" parent="77e6c97f196da883-6">
          <mxGeometry x="60" y="260" width="100" height="80" as="geometry" />
        </mxCell>
        <mxCell id="k9yy4idc6pMp43QgDsTV-210" value="" style="edgeStyle=orthogonalEdgeStyle;rounded=0;orthogonalLoop=1;jettySize=auto;html=1;fontSize=12;" edge="1" parent="77e6c97f196da883-6" source="k9yy4idc6pMp43QgDsTV-170" target="k9yy4idc6pMp43QgDsTV-171">
          <mxGeometry relative="1" as="geometry" />
        </mxCell>
        <mxCell id="k9yy4idc6pMp43QgDsTV-170" value="&lt;div style=&quot;font-size: 12px;&quot;&gt;Failover&lt;/div&gt;&lt;div style=&quot;font-size: 12px;&quot;&gt;&lt;br style=&quot;font-size: 12px;&quot;&gt;&lt;/div&gt;&lt;div style=&quot;font-size: 12px;&quot;&gt;选择主备&lt;br style=&quot;font-size: 12px;&quot;&gt;&lt;/div&gt;" style="rounded=1;whiteSpace=wrap;html=1;shadow=0;labelBackgroundColor=none;strokeWidth=1;fontFamily=Verdana;fontSize=12;align=center;flipV=1;" vertex="1" parent="77e6c97f196da883-6">
          <mxGeometry x="60" y="40" width="100" height="80" as="geometry" />
        </mxCell>
        <mxCell id="k9yy4idc6pMp43QgDsTV-211" value="" style="edgeStyle=orthogonalEdgeStyle;rounded=0;orthogonalLoop=1;jettySize=auto;html=1;fontSize=12;" edge="1" parent="77e6c97f196da883-6" source="k9yy4idc6pMp43QgDsTV-171" target="k9yy4idc6pMp43QgDsTV-169">
          <mxGeometry relative="1" as="geometry" />
        </mxCell>
        <mxCell id="k9yy4idc6pMp43QgDsTV-171" value="&lt;div style=&quot;font-size: 12px;&quot;&gt;retry&lt;/div&gt;&lt;div style=&quot;font-size: 12px;&quot;&gt;&lt;br style=&quot;font-size: 12px;&quot;&gt;&lt;/div&gt;&lt;div style=&quot;font-size: 12px;&quot;&gt;重试&lt;br style=&quot;font-size: 12px;&quot;&gt;&lt;/div&gt;" style="rounded=1;whiteSpace=wrap;html=1;shadow=0;labelBackgroundColor=none;strokeWidth=1;fontFamily=Verdana;fontSize=12;align=center;flipV=1;" vertex="1" parent="77e6c97f196da883-6">
          <mxGeometry x="60" y="150" width="100" height="80" as="geometry" />
        </mxCell>
        <mxCell id="k9yy4idc6pMp43QgDsTV-213" value="" style="edgeStyle=orthogonalEdgeStyle;rounded=0;orthogonalLoop=1;jettySize=auto;html=1;fontSize=12;" edge="1" parent="77e6c97f196da883-6" source="k9yy4idc6pMp43QgDsTV-176" target="k9yy4idc6pMp43QgDsTV-181">
          <mxGeometry relative="1" as="geometry" />
        </mxCell>
        <mxCell id="k9yy4idc6pMp43QgDsTV-176" value="&lt;div style=&quot;font-size: 12px;&quot;&gt;TLS cert&lt;/div&gt;&lt;div style=&quot;font-size: 12px;&quot;&gt;&lt;br style=&quot;font-size: 12px;&quot;&gt;&lt;/div&gt;&lt;div style=&quot;font-size: 12px;&quot;&gt;选择上游证书&lt;/div&gt;" style="rounded=1;whiteSpace=wrap;html=1;shadow=0;labelBackgroundColor=none;strokeWidth=1;fontFamily=Verdana;fontSize=12;align=center;flipV=1;" vertex="1" parent="77e6c97f196da883-6">
          <mxGeometry x="60" y="370" width="100" height="80" as="geometry" />
        </mxCell>
        <mxCell id="k9yy4idc6pMp43QgDsTV-214" value="" style="edgeStyle=orthogonalEdgeStyle;rounded=0;orthogonalLoop=1;jettySize=auto;html=1;fontSize=12;" edge="1" parent="77e6c97f196da883-6" source="k9yy4idc6pMp43QgDsTV-181" target="k9yy4idc6pMp43QgDsTV-182">
          <mxGeometry relative="1" as="geometry" />
        </mxCell>
        <mxCell id="k9yy4idc6pMp43QgDsTV-181" value="encode HTTP" style="rounded=1;whiteSpace=wrap;html=1;shadow=0;labelBackgroundColor=none;strokeWidth=1;fontFamily=Verdana;fontSize=12;align=center;flipV=1;" vertex="1" parent="77e6c97f196da883-6">
          <mxGeometry x="60" y="490" width="100" height="60" as="geometry" />
        </mxCell>
        <mxCell id="k9yy4idc6pMp43QgDsTV-215" value="" style="edgeStyle=orthogonalEdgeStyle;rounded=0;orthogonalLoop=1;jettySize=auto;html=1;fontSize=12;" edge="1" parent="77e6c97f196da883-6" source="k9yy4idc6pMp43QgDsTV-182" target="k9yy4idc6pMp43QgDsTV-183">
          <mxGeometry relative="1" as="geometry" />
        </mxCell>
        <mxCell id="k9yy4idc6pMp43QgDsTV-217" value="" style="edgeStyle=orthogonalEdgeStyle;rounded=0;orthogonalLoop=1;jettySize=auto;html=1;fontSize=12;" edge="1" parent="77e6c97f196da883-6" source="k9yy4idc6pMp43QgDsTV-182">
          <mxGeometry relative="1" as="geometry">
            <mxPoint x="260" y="50" as="targetPoint" />
            <Array as="points">
              <mxPoint x="200" y="620" />
              <mxPoint x="200" y="50" />
            </Array>
          </mxGeometry>
        </mxCell>
        <mxCell id="k9yy4idc6pMp43QgDsTV-182" value="&lt;div style=&quot;font-size: 12px;&quot;&gt;chain&lt;/div&gt;下一流程" style="ellipse;whiteSpace=wrap;html=1;aspect=fixed;fontSize=12;" vertex="1" parent="77e6c97f196da883-6">
          <mxGeometry x="70" y="580" width="80" height="80" as="geometry" />
        </mxCell>
        <mxCell id="k9yy4idc6pMp43QgDsTV-226" value="" style="edgeStyle=orthogonalEdgeStyle;rounded=0;orthogonalLoop=1;jettySize=auto;html=1;exitX=0.5;exitY=1;exitDx=0;exitDy=0;fontSize=12;" edge="1" parent="77e6c97f196da883-6" source="k9yy4idc6pMp43QgDsTV-183">
          <mxGeometry relative="1" as="geometry">
            <mxPoint y="830" as="targetPoint" />
            <Array as="points">
              <mxPoint x="110" y="830" />
              <mxPoint y="830" />
            </Array>
          </mxGeometry>
        </mxCell>
        <mxCell id="k9yy4idc6pMp43QgDsTV-183" value="decode HTTP" style="rounded=1;whiteSpace=wrap;html=1;shadow=0;labelBackgroundColor=none;strokeWidth=1;fontFamily=Verdana;fontSize=12;align=center;" vertex="1" parent="77e6c97f196da883-6">
          <mxGeometry x="60" y="690" width="100" height="60" as="geometry" />
        </mxCell>
        <mxCell id="77e6c97f196da883-7" value="Connect/连接" style="swimlane;html=1;startSize=20;fontSize=15;" parent="77e6c97f196da883-1" vertex="1">
          <mxGeometry x="1453" y="20" width="199" height="1002" as="geometry" />
        </mxCell>
        <mxCell id="k9yy4idc6pMp43QgDsTV-218" value="" style="edgeStyle=orthogonalEdgeStyle;rounded=0;orthogonalLoop=1;jettySize=auto;html=1;fontSize=12;" edge="1" parent="77e6c97f196da883-7" source="k9yy4idc6pMp43QgDsTV-180" target="k9yy4idc6pMp43QgDsTV-185">
          <mxGeometry relative="1" as="geometry" />
        </mxCell>
        <mxCell id="k9yy4idc6pMp43QgDsTV-180" value="&lt;div style=&quot;font-size: 12px;&quot;&gt;Connect&lt;/div&gt;&lt;div style=&quot;font-size: 12px;&quot;&gt;&lt;br style=&quot;font-size: 12px;&quot;&gt;&lt;/div&gt;&lt;div style=&quot;font-size: 12px;&quot;&gt;连接&lt;br style=&quot;font-size: 12px;&quot;&gt;&lt;/div&gt;" style="rounded=1;whiteSpace=wrap;html=1;shadow=0;labelBackgroundColor=none;strokeWidth=1;fontFamily=Verdana;fontSize=12;align=center;" vertex="1" parent="77e6c97f196da883-7">
          <mxGeometry x="38" y="41" width="100" height="80" as="geometry" />
        </mxCell>
        <mxCell id="k9yy4idc6pMp43QgDsTV-221" value="" style="edgeStyle=orthogonalEdgeStyle;rounded=0;orthogonalLoop=1;jettySize=auto;html=1;fontSize=12;" edge="1" parent="77e6c97f196da883-7" source="k9yy4idc6pMp43QgDsTV-184">
          <mxGeometry relative="1" as="geometry">
            <mxPoint y="630" as="targetPoint" />
            <Array as="points">
              <mxPoint x="88" y="630" />
            </Array>
          </mxGeometry>
        </mxCell>
        <mxCell id="k9yy4idc6pMp43QgDsTV-184" value="&lt;div style=&quot;font-size: 12px;&quot;&gt;Connect&lt;/div&gt;&lt;div style=&quot;font-size: 12px;&quot;&gt;&lt;br style=&quot;font-size: 12px;&quot;&gt;&lt;/div&gt;&lt;div style=&quot;font-size: 12px;&quot;&gt;通过Socks或者HTTP代理&lt;br style=&quot;font-size: 12px;&quot;&gt;&lt;/div&gt;" style="rounded=1;whiteSpace=wrap;html=1;shadow=0;labelBackgroundColor=none;strokeWidth=1;fontFamily=Verdana;fontSize=12;align=center;" vertex="1" parent="77e6c97f196da883-7">
          <mxGeometry x="38" y="260" width="100" height="80" as="geometry" />
        </mxCell>
        <mxCell id="k9yy4idc6pMp43QgDsTV-219" value="" style="edgeStyle=orthogonalEdgeStyle;rounded=0;orthogonalLoop=1;jettySize=auto;html=1;fontSize=12;" edge="1" parent="77e6c97f196da883-7" source="k9yy4idc6pMp43QgDsTV-185" target="k9yy4idc6pMp43QgDsTV-184">
          <mxGeometry relative="1" as="geometry" />
        </mxCell>
        <mxCell id="k9yy4idc6pMp43QgDsTV-224" value="是" style="edgeLabel;html=1;align=center;verticalAlign=middle;resizable=0;points=[];fontSize=12;" vertex="1" connectable="0" parent="k9yy4idc6pMp43QgDsTV-219">
          <mxGeometry x="0.28" y="1" relative="1" as="geometry">
            <mxPoint as="offset" />
          </mxGeometry>
        </mxCell>
        <mxCell id="k9yy4idc6pMp43QgDsTV-223" value="否" style="edgeStyle=orthogonalEdgeStyle;rounded=0;orthogonalLoop=1;jettySize=auto;html=1;fontSize=12;" edge="1" parent="77e6c97f196da883-7">
          <mxGeometry relative="1" as="geometry">
            <mxPoint x="130" y="190" as="sourcePoint" />
            <mxPoint y="630" as="targetPoint" />
            <Array as="points">
              <mxPoint x="160" y="190" />
              <mxPoint x="160" y="630" />
            </Array>
          </mxGeometry>
        </mxCell>
        <mxCell id="k9yy4idc6pMp43QgDsTV-185" value="&lt;div style=&quot;font-size: 12px;&quot;&gt;是否&lt;/div&gt;&lt;div style=&quot;font-size: 12px;&quot;&gt;代理&lt;br style=&quot;font-size: 12px;&quot;&gt;&lt;/div&gt;" style="rhombus;whiteSpace=wrap;html=1;fontSize=12;" vertex="1" parent="77e6c97f196da883-7">
          <mxGeometry x="48" y="150" width="80" height="80" as="geometry" />
        </mxCell>
      </root>
    </mxGraphModel>
  </diagram>
</mxfile>
